<svg height="512pt" viewBox="0 0 512 512" width="512pt" xmlns="http://www.w3.org/2000/svg"><path d="m80.667969 0h150v90h-150zm0 0" fill="#fc7e49"/><path d="m281.332031 0h150v90h-150zm0 0" fill="#fe5e49"/><path d="m256 512h256v-150.667969l-356-100zm0 0" fill="#01b1bc"/><path d="m0 361.332031v150.667969h256v-250.667969zm0 0" fill="#3ac7cf"/><path d="m256 60h256v150.667969l-356 100zm0 0" fill="#ff3a33"/><path d="m0 210.667969v-150.667969h256v250.667969zm0 0" fill="#fe5e49"/><path d="m256 361.332031h256v-150.667969h-256l-120 75.335938zm0 0" fill="#fc7e49"/><path d="m0 210.664062h256v150.667969h-256zm0 0" fill="#f4de48"/></svg>